<?xml version="1.0" encoding="utf-8"?>
<!-- Generator: Adobe Illustrator 25.0.0, SVG Export Plug-In . SVG Version: 6.00 Build 0)  -->
<svg version="1.1" id="Layer_1" xmlns="http://www.w3.org/2000/svg" xmlns:xlink="http://www.w3.org/1999/xlink" x="0px" y="0px"
	 viewBox="0 0 233 233" style="enable-background:new 0 0 233 233;" xml:space="preserve">
<style type="text/css">
	.st0{fill:#1E3259;}
	.st1{fill:url(#SVGID_1_);}
	.st2{fill:url(#SVGID_2_);}
	.st3{fill:#FFFFFF;}
</style>
<circle class="st0" cx="188.7" cy="96.1" r="22.9"/>
<linearGradient id="SVGID_1_" gradientUnits="userSpaceOnUse" x1="116.3849" y1="85.6359" x2="116.3849" y2="39.763" gradientTransform="matrix(1 0 0 -1 0 233.8898)">
	<stop  offset="0" style="stop-color:#111D2E"/>
	<stop  offset="0.2125" style="stop-color:#051839"/>
	<stop  offset="0.4069" style="stop-color:#0A1B48"/>
	<stop  offset="0.5811" style="stop-color:#132E62"/>
	<stop  offset="0.7376" style="stop-color:#144B7E"/>
	<stop  offset="0.8728" style="stop-color:#136497"/>
	<stop  offset="1" style="stop-color:#1387B8"/>
</linearGradient>
<circle class="st1" cx="116.4" cy="171.1" r="22.9"/>
<circle class="st0" cx="116.4" cy="22.9" r="22.9"/>
<circle class="st0" cx="43.2" cy="96.1" r="22.9"/>
<circle class="st0" cx="52" cy="135.8" r="22.9"/>
<circle class="st0" cx="77.6" cy="162.3" r="22.9"/>
<circle class="st0" cx="51.1" cy="59.2" r="22.9"/>
<circle class="st0" cx="79.4" cy="31.8" r="22.9"/>
<circle class="st0" cx="155.2" cy="35.3" r="22.9"/>
<circle class="st0" cx="179.1" cy="59.2" r="22.9"/>
<circle class="st0" cx="184.3" cy="136.8" r="22.9"/>
<circle class="st0" cx="153.5" cy="162.3" r="22.9"/>
<polyline class="st0" points="79.4,158.7 79.4,233 116,211 153.9,233 152.4,158.8 "/>
<linearGradient id="SVGID_2_" gradientUnits="userSpaceOnUse" x1="-359.9473" y1="2.7095" x2="-359.9473" y2="3.3329" gradientTransform="matrix(232.75 0 0 233 83893.75 -608.0024)">
	<stop  offset="0" style="stop-color:#111D2E"/>
	<stop  offset="0.2125" style="stop-color:#051839"/>
	<stop  offset="0.4069" style="stop-color:#0A1B48"/>
	<stop  offset="0.5811" style="stop-color:#132E62"/>
	<stop  offset="0.7376" style="stop-color:#144B7E"/>
	<stop  offset="0.8728" style="stop-color:#136497"/>
	<stop  offset="1" style="stop-color:#1387B8"/>
</linearGradient>
<path class="st2" d="M46.4,116.9c9,29.9,36.8,51.7,69.6,51.7c40.1,0,72.6-32.5,72.6-72.6S156.1,23.3,116,23.3
	c-38.5,0-70,29.9-72.5,67.9C48.2,99,50,103.9,46.4,116.9L46.4,116.9z"/>
<path class="st3" d="M112.4,77.6c0,0.1,0,0.2,0,0.3l-17.7,25.9c-2.9-0.1-5.8,0.4-8.5,1.6c-1.2,0.5-2.4,1.1-3.4,1.8L43.8,91
	c0,0-0.9,14.8,2.9,25.9l27.6,11.4c1.3,6.2,5.6,11.6,11.9,14.2c10.3,4.2,22.1-0.6,26.3-10.9c1.1-2.7,1.7-5.5,1.6-8.3l25.4-18.1
	c0.2,0,0.4,0,0.6,0c15.2,0,27.6-12.4,27.6-27.7S155.2,49.8,140,49.8C124.9,49.9,112.4,62.4,112.4,77.6z M108.2,129.9
	c-3.3,7.9-12.4,11.7-20.3,8.4c-3.6-1.6-6.4-4.4-8-7.7l9,3.7c5.8,2.4,12.5-0.3,14.9-6.2c2.4-5.8-0.3-12.5-6.1-15l-9.3-3.8
	c3.6-1.3,7.7-1.5,11.5,0.2c3.8,1.6,6.8,4.6,8.4,8.4C109.9,121.7,109.8,126.1,108.2,129.9 M140,96c-10.2,0-18.3-8.3-18.3-18.4
	S130,59.2,140,59.2c10.2,0,18.3,8.3,18.3,18.4C158.4,87.8,150.2,96,140,96 M126.2,77.6c0-7.7,6.2-13.9,13.8-13.9
	c7.7,0,13.8,6.2,13.8,13.9s-6.2,13.8-13.8,13.8C132.4,91.4,126.2,85.3,126.2,77.6z"/>
</svg>
